<svg xmlns="http://www.w3.org/2000/svg" xmlns:xlink="http://www.w3.org/1999/xlink" version="1.1" width="1000" height="1000" viewBox="0 0 1000 240" xml:space="preserve">
<g transform="matrix(1.2793 0 0 1.2793 295.7402 100)" id="844284">
<path style="stroke: none; stroke-width: 1; stroke-dasharray: none; stroke-linecap: butt; stroke-dashoffset: 0; stroke-linejoin: miter; stroke-miterlimit: 4; is-custom-font: none; font-file-url: none; fill: rgb(122,142,255); fill-rule: evenodd; opacity: 1;" vector-effect="non-scaling-stroke" transform=" translate(-201.9155, -61.1275)" d="M 352.974 8.179 C 350.48 8.393 350.432 8.536 350.364 16.027 C 350.28 25.448 350.085 25.137 356.156 25.285 C 361.909 25.426 361.417 24.463 361.417 35.583 C 361.417 47.176 361.713 46.699 356.577 43.369 C 353.868 41.613 350.979 40.194 349.083 39.69 C 347.941 39.386 342.11 38.646 341.583 38.739 C 341.308 38.787 339.846 38.941 338.333 39.082 C 335.016 39.389 334.105 39.562 332.583 40.169 C 331.942 40.425 330.823 40.841 330.098 41.094 C 329.373 41.346 328.323 41.863 327.765 42.242 C 323.595 45.073 323.331 45.287 321.177 47.583 C 316.582 52.48 314.558 55.671 312.828 60.749 C 312.39 62.033 311.88 63.496 311.694 64.001 C 311.056 65.737 310.365 70.858 310.223 74.917 C 309.832 86.045 312.651 94.552 319.444 102.75 C 323.32 107.428 323.898 107.922 329.083 111.007 C 329.358 111.17 330.371 111.544 331.333 111.838 C 332.296 112.132 333.871 112.644 334.833 112.978 L 336.583 113.583 L 341.333 113.583 C 346.069 113.582 346.087 113.58 347.25 113.139 C 347.892 112.896 349.255 112.395 350.28 112.025 C 352.813 111.113 353.637 110.662 357.891 107.858 C 360.702 106.005 361.144 106.191 361.504 109.37 C 361.883 112.711 360.167 112.417 379.25 112.417 L 395.25 112.417 L 395.983 112 C 397.367 111.214 397.347 111.343 397.295 103.75 L 397.25 97.083 L 396.862 96.539 C 396.111 95.486 395.856 95.431 391.25 95.332 C 386.626 95.232 386.276 95.155 385.711 94.122 C 385.432 93.612 385.412 91.339 385.333 51.75 C 385.256 12.796 385.231 9.881 384.967 9.4 C 384.391 8.349 384.062 8.254 380.833 8.209 C 373.927 8.114 353.988 8.092 352.974 8.179 M 36.436 13.274 C 36.171 13.417 34.971 14.262 33.769 15.151 C 32.567 16.04 31.057 17.107 30.414 17.522 C 29.246 18.275 25.494 21.11 23.917 22.431 C 23.458 22.815 22.371 23.557 21.5 24.081 C 19.668 25.182 19.29 25.508 18.051 27.049 C 17.55 27.672 16.879 28.443 16.56 28.763 C 15.514 29.808 15.445 30.141 15.342 34.667 C 15.211 40.388 15.259 40.324 10.993 40.493 C 6.46 40.673 6.6 40.421 6.532 48.537 C 6.478 55.096 6.573 56.283 7.208 56.963 C 7.863 57.663 8.184 57.739 10.917 57.838 C 13.803 57.943 14.3 58.074 14.902 58.887 C 15.248 59.355 15.25 59.441 15.356 77.47 C 15.47 97.055 15.483 97.352 16.405 100.925 C 18.147 107.674 22.196 111.553 29.366 113.34 C 32.224 114.052 40.192 113.675 43.866 112.654 C 45.177 112.29 46.91 111.846 47.716 111.668 C 50.235 111.112 52.084 109.841 52.488 108.387 C 52.722 107.543 52.727 96.14 52.493 95.299 C 52.113 93.93 51.164 93.737 47.827 94.352 C 43.37 95.174 40.656 94.191 39.792 91.445 L 39.417 90.25 L 39.417 75 C 39.417 60.757 39.436 59.711 39.711 59.159 C 40.302 57.974 40.511 57.928 45.833 57.827 C 53.073 57.69 52.563 58.308 52.637 49.583 C 52.72 39.885 53.165 40.496 45.931 40.386 C 40.61 40.305 40.402 40.263 39.801 39.138 L 39.417 38.417 L 39.333 26.25 C 39.246 13.469 39.252 13.569 38.507 13.17 C 38.042 12.922 36.989 12.974 36.436 13.274 M 167.083 38.757 C 166.992 38.792 165.391 38.937 163.527 39.079 C 159.497 39.385 158.15 39.641 155.994 40.51 C 155.105 40.869 153.973 41.254 153.48 41.367 C 152.488 41.593 147.958 43.849 146.461 44.862 C 145.574 45.463 144.692 46.211 140.25 50.132 C 137.962 52.152 134.798 56.359 133.815 58.689 C 133.608 59.181 133.085 60.221 132.654 61 C 132.117 61.97 131.752 62.916 131.496 64 C 131.291 64.871 130.826 66.29 130.463 67.153 C 129.753 68.84 129.763 68.77 129.325 74.673 C 129.151 77.027 129.161 77.99 129.396 81.257 C 129.765 86.384 129.759 86.343 130.32 87.744 C 130.591 88.419 131.036 89.746 131.31 90.694 C 131.856 92.584 133.979 97.007 134.963 98.305 C 140.525 105.642 146.61 109.974 154.333 112.093 C 155.479 112.408 157.054 112.856 157.833 113.09 C 160.217 113.806 170.174 114.375 174.167 114.024 C 175.313 113.924 177.188 113.76 178.333 113.661 C 179.9 113.525 180.83 113.342 182.083 112.923 C 183 112.617 184.387 112.199 185.167 111.993 C 189.633 110.813 196.487 106.607 199.26 103.343 C 199.849 102.65 200.93 101.408 201.663 100.583 C 205.068 96.752 204.775 95.814 199.667 94.196 C 198.796 93.92 196.883 93.313 195.417 92.846 C 193.95 92.379 192.663 91.998 192.558 91.999 C 192.452 91.999 191.317 91.662 190.036 91.25 C 186.822 90.215 186.532 90.265 184.264 92.243 C 179.126 96.724 175.211 98.413 170 98.395 C 161.204 98.364 154.383 93.034 153.39 85.415 C 153.083 83.059 153.23 82.413 154.195 81.886 C 154.722 81.598 155.99 81.579 179.583 81.5 C 207.288 81.407 205.005 81.514 205.525 80.284 C 205.972 79.223 205.81 75.302 205.185 72.083 C 204.087 66.425 203.498 63.87 203.068 62.903 C 202.827 62.361 202.374 61.183 202.061 60.286 C 201.431 58.481 199.147 53.951 198.116 52.46 C 195.778 49.079 187.208 42.691 183.501 41.565 C 182.721 41.328 181.371 40.832 180.5 40.462 C 178.789 39.735 177.978 39.582 172.77 39 C 170.075 38.699 167.52 38.589 167.083 38.757 M 113.833 39.75 C 108.422 40.843 101.31 45.3 98.675 49.25 C 97.168 51.508 95.585 52.458 95.134 51.375 C 95.019 51.098 94.904 49.269 94.845 46.75 C 94.706 40.896 94.673 40.848 90.622 40.623 C 85.843 40.357 62.68 40.635 62.011 40.967 C 60.719 41.606 60.756 41.382 60.702 48.887 C 60.634 58.393 60.151 57.706 67 57.839 C 72.068 57.937 72.28 57.98 72.936 59.064 C 73.409 59.846 73.428 93.257 72.956 94.122 C 72.367 95.199 72.156 95.237 66.333 95.332 C 58.859 95.454 59.333 94.866 59.333 104.015 C 59.333 111.688 59.479 112.169 61.864 112.411 C 64.958 112.725 109.072 112.423 109.739 112.083 C 111.137 111.373 111.083 111.702 111.083 103.917 C 111.083 94.699 111.718 95.459 103.917 95.333 C 96.576 95.215 96.943 95.536 96.864 89.167 C 96.798 83.866 96.884 83.196 98.5 76.333 C 99.936 70.233 105.07 64.63 110.333 63.419 C 111.021 63.261 112.371 62.917 113.333 62.654 C 114.647 62.296 115.624 62.152 117.25 62.076 C 123.694 61.774 123.359 62.427 123.297 50.311 L 123.25 41.083 L 122.877 40.561 C 122.127 39.508 117.211 39.068 113.833 39.75 M 264.917 39.731 C 260.709 40.827 255.912 42.747 253.297 44.381 C 251.105 45.75 250.189 45.509 249.918 43.491 C 249.646 41.466 249.089 40.876 247.224 40.638 C 245.379 40.402 218.13 40.566 217.311 40.818 C 215.355 41.421 215.262 41.74 215.195 48.11 C 215.093 57.824 215.017 57.69 220.75 57.844 C 224.64 57.948 225.083 58.057 225.622 59.044 C 225.898 59.55 225.917 60.645 225.917 76.583 C 225.917 92.521 225.898 93.617 225.622 94.122 C 225.078 95.117 224.641 95.226 220.75 95.326 C 215.067 95.473 215.417 94.91 215.417 103.917 C 215.417 111.702 215.363 111.373 216.761 112.083 C 217.802 112.612 258.76 112.607 259.661 112.077 C 260.927 111.334 260.917 111.399 260.917 103.917 C 260.917 94.869 261.299 95.459 255.355 95.333 C 250.924 95.24 250.721 95.189 250.194 94.029 C 249.733 93.011 249.774 65.372 250.238 64.436 C 250.941 63.02 254.86 60.867 258.667 59.804 C 260.011 59.429 264.435 59.514 265.333 59.933 C 266.789 60.611 268.012 62.224 268.614 64.262 C 268.884 65.175 268.913 66.966 268.995 87.917 C 269.088 111.8 269.061 111.048 269.857 111.776 C 270.631 112.483 270.967 112.498 285.852 112.499 C 300.719 112.5 301.573 112.463 302.304 111.79 C 303.124 111.035 303.149 110.812 303.186 103.982 C 303.234 95.06 303.499 95.492 297.909 95.341 C 292.682 95.199 293.124 96.131 292.97 84.917 C 292.905 80.15 292.893 75.05 292.943 73.583 C 293.264 64.224 291.752 54.451 289.312 50.108 C 286.512 45.124 283.981 42.893 278.643 40.703 L 275.917 39.584 L 270.833 39.549 C 267.096 39.523 265.529 39.571 264.917 39.731 M 172 55.276 C 175.25 56.477 178.592 59.778 180.323 63.5 C 181.506 66.043 181.345 67.251 179.765 67.691 C 178.973 67.912 156.759 67.993 155.473 67.779 C 153.311 67.421 153.27 65.621 155.33 61.484 C 157.061 58.006 159.732 55.852 163.25 55.095 C 165.078 54.702 170.763 54.819 172 55.276 M 351.505 58.676 C 356.605 60.495 359.72 63.844 361.029 68.917 C 361.606 71.149 361.607 81.655 361.032 83.735 C 358.795 91.814 351.977 96.125 344.514 94.178 C 339.127 92.773 335.311 86.928 334.833 79.349 C 334.527 74.5 334.975 69.262 335.882 67.073 C 338.914 59.756 345.145 56.407 351.505 58.676" stroke-linecap="round"/>
</g>
<g transform="matrix(1 0 0 1 747 125)" id="310487">
<path style="stroke: none; stroke-width: 1; stroke-dasharray: none; stroke-linecap: butt; stroke-dashoffset: 0; stroke-linejoin: miter; stroke-miterlimit: 4; is-custom-font: none; font-file-url: none; fill: rgb(133,127,255); fill-rule: evenodd; opacity: 1;" vector-effect="non-scaling-stroke" transform=" translate(-192.423, -99.1521)" d="M 361.168 16.597 C 360.569 16.958 359.531 17.694 358.862 18.234 C 357.698 19.172 355.571 20.707 353.547 22.068 C 353.025 22.419 352.108 23.062 351.508 23.497 C 350.908 23.932 349.9 24.641 349.268 25.073 C 348.636 25.504 347.313 26.483 346.328 27.247 C 343.707 29.282 343.514 29.414 341.891 30.306 C 339.897 31.402 338.496 32.696 337.243 34.598 C 335.375 37.434 335.442 37.126 335.323 43.466 C 335.179 51.08 335.54 50.635 329.379 50.793 C 322.781 50.963 323.27 50.087 323.27 61.724 C 323.27 73.345 322.798 72.485 329.286 72.66 C 333.729 72.779 334.172 72.878 334.866 73.902 C 335.206 74.403 335.221 75.264 335.32 99.444 L 335.422 124.467 L 336.274 128.098 C 337.429 133.021 338.598 134.985 342.142 137.962 C 344.265 139.745 344.397 139.82 346.636 140.514 C 347.696 140.843 349.192 141.381 349.961 141.709 C 353.404 143.18 365.781 143.237 369.416 141.799 C 369.977 141.577 371.976 141.02 373.858 140.56 C 378.523 139.422 380.248 138.464 380.76 136.727 C 381.15 135.404 381.066 120.005 380.665 119.242 C 380.019 118.014 379.364 117.869 376.645 118.353 C 370.019 119.534 366.936 118.724 365.416 115.405 L 364.981 114.454 L 364.948 94.692 C 364.916 75.647 364.928 74.904 365.266 74.212 C 365.941 72.83 366.262 72.766 373.031 72.66 C 381.69 72.525 381.091 73.33 381.091 61.816 C 381.091 50.246 381.629 50.956 372.753 50.799 C 366.437 50.687 366.14 50.638 365.472 49.62 C 364.996 48.893 364.984 48.544 364.873 32.964 C 364.813 24.635 364.69 17.747 364.593 17.411 C 364.133 15.806 362.949 15.525 361.168 16.597 M 264.504 48.757 C 263.943 48.838 262.243 48.996 260.724 49.108 C 255.519 49.49 253.467 49.825 251.467 50.618 C 250.464 51.016 248.855 51.556 247.892 51.818 C 245.678 52.421 245.033 52.693 243.755 53.56 C 243.188 53.945 242.141 54.556 241.427 54.919 C 240.714 55.281 239.117 56.273 237.879 57.122 C 231.213 61.693 226.584 66.679 223.884 72.196 C 223.286 73.42 222.589 74.796 222.335 75.255 C 222.082 75.714 221.594 77.09 221.251 78.313 C 220.908 79.537 220.394 81.08 220.11 81.742 C 219.214 83.832 219.062 84.544 218.905 87.396 C 218.821 88.925 218.653 91.494 218.533 93.105 C 218.365 95.353 218.365 96.776 218.532 99.222 C 218.652 100.975 218.819 103.62 218.903 105.099 C 219.019 107.127 219.158 108.062 219.467 108.899 C 220.094 110.599 220.876 112.982 221.412 114.829 C 221.679 115.746 222.175 116.956 222.515 117.516 C 222.855 118.077 223.553 119.411 224.066 120.482 C 224.982 122.391 225.599 123.235 228.545 126.603 C 233.517 132.289 237.773 135.564 245.281 139.485 C 245.98 139.85 247.755 140.474 249.267 140.887 C 250.766 141.297 252.436 141.795 252.978 141.995 C 256.165 143.17 265.241 143.639 272.753 143.018 C 277.382 142.635 277.711 142.582 279.277 141.964 C 280.011 141.675 281.452 141.225 282.479 140.965 C 284.564 140.437 285.891 139.895 287.504 138.916 C 288.102 138.552 289.309 137.973 290.185 137.629 C 291.731 137.022 294.316 135.416 296.015 134.007 C 296.474 133.627 297.516 132.82 298.332 132.215 C 302.699 128.975 307.834 121.663 309.957 115.663 C 310.264 114.796 310.705 113.71 310.938 113.25 C 311.444 112.25 311.705 111.324 312.053 109.298 C 312.196 108.466 312.485 106.784 312.696 105.561 C 313.253 102.327 313.434 92.144 312.994 88.786 C 312.52 85.166 311.943 81.93 311.574 80.816 C 310.067 76.267 308.933 73.413 308.02 71.873 C 307.461 70.93 306.657 69.484 306.232 68.66 C 305.411 67.067 303.223 64.368 301.742 63.122 C 301.252 62.71 300.672 62.14 300.453 61.855 C 300.233 61.571 299.247 60.735 298.262 59.998 C 297.276 59.261 296.138 58.403 295.732 58.091 C 292.156 55.34 287.116 52.681 283.503 51.637 C 282.28 51.284 280.809 50.787 280.235 50.533 C 278.896 49.94 277.048 49.567 274.143 49.304 C 272.868 49.189 270.616 48.975 269.138 48.829 C 266.218 48.54 266.018 48.537 264.504 48.757 M 32.345 49.682 C 30.408 49.752 28.698 49.856 28.545 49.913 C 28.392 49.969 26.432 50.605 24.189 51.325 C 13.074 54.892 5.094 62.982 3.968 71.826 C 3.605 74.671 3.702 80.35 4.153 82.75 C 5.055 87.547 9.869 93.773 14.862 96.603 C 15.576 97.007 16.686 97.698 17.329 98.139 C 17.973 98.579 19.192 99.207 20.038 99.533 C 20.884 99.859 22.234 100.457 23.038 100.861 C 23.841 101.265 25.555 101.889 26.846 102.248 C 28.137 102.607 30.153 103.225 31.325 103.623 C 32.498 104.02 33.999 104.435 34.662 104.545 C 38.266 105.145 41.909 105.916 43.334 106.381 C 44.225 106.672 46.027 107.047 47.353 107.218 C 58.207 108.615 63.834 112.743 61.471 117.574 C 58.574 123.495 47.267 125.282 37.961 121.288 C 32.654 119.011 30.388 116.811 29.109 112.693 C 28.125 109.525 28.811 109.696 17.391 109.768 C 7.544 109.83 7.93 109.778 7.229 111.138 C 6.727 112.111 6.82 139.07 7.328 139.944 C 8.09 141.256 7.976 141.241 17.609 141.241 C 26.961 141.24 27.106 141.226 28.623 140.204 C 30.018 139.265 30.847 139.448 37.011 142.058 C 39.279 143.018 47.679 143.616 54.413 143.295 C 60.368 143.012 62.629 142.639 65.709 141.429 C 66.932 140.948 68.529 140.33 69.258 140.056 C 76.255 137.417 84.268 128.522 85.893 121.588 C 88.669 109.743 86.001 99.37 78.684 93.564 C 77.868 92.917 76.729 92.003 76.151 91.533 C 74.697 90.348 70.18 88.02 67.841 87.249 C 66.77 86.896 65.394 86.397 64.782 86.14 C 64.171 85.882 62.307 85.41 60.642 85.089 C 58.976 84.769 56.592 84.182 55.343 83.786 C 53.763 83.284 52.189 82.947 50.168 82.679 C 46.777 82.228 41.535 81.179 39.951 80.633 C 39.343 80.424 38.063 80.165 37.107 80.058 C 31.215 79.401 28.673 77.458 28.964 73.832 C 29.271 70.014 33.292 68.584 42.982 68.847 C 48.714 69.003 50.207 69.329 53.42 71.123 C 55.319 72.184 55.417 72.277 57.968 75.44 C 58.75 76.411 59.555 77.194 60.064 77.479 L 60.89 77.943 L 69.197 77.999 C 78.091 78.06 79.109 77.985 80.051 77.193 C 81 76.393 81.022 76.082 80.963 64.133 C 80.901 51.692 80.985 52.384 79.442 51.5 L 78.684 51.066 L 69.88 51.066 L 61.075 51.066 L 59.688 51.715 C 57.64 52.672 55.426 52.454 50.324 50.793 C 47.719 49.945 41.646 49.381 36.701 49.528 C 36.242 49.542 34.282 49.611 32.345 49.682 M 160.007 49.872 C 159.573 49.958 158.447 50.353 157.505 50.75 C 156.563 51.147 154.815 51.785 153.619 52.166 C 152.222 52.612 151.164 53.075 150.654 53.464 C 150.218 53.797 149.243 54.464 148.488 54.948 C 147.733 55.432 146.159 56.528 144.991 57.385 C 141.622 59.857 141.248 59.624 140.972 54.879 C 140.853 52.83 140.508 51.983 139.574 51.442 C 138.878 51.038 110.936 50.757 102.917 51.073 C 97.488 51.286 97.776 50.679 97.776 61.909 C 97.776 73.434 97.219 72.522 104.332 72.66 C 110.477 72.779 110.534 72.809 110.862 76.121 C 111.23 79.832 110.991 157.907 110.609 158.674 C 109.937 160.022 109.82 160.044 102.957 160.148 C 96.262 160.25 96.257 160.25 95.508 161.394 C 95.047 162.098 95.002 179.912 95.459 180.799 C 96.326 182.481 94.832 182.412 127.525 182.292 C 159.453 182.175 157.028 182.286 157.826 180.908 C 158.331 180.036 158.42 162.53 157.924 161.538 C 157.314 160.318 156.907 160.251 149.49 160.148 C 141.935 160.043 141.905 160.038 141.358 158.669 C 140.97 157.7 140.916 137.542 141.299 136.425 C 141.758 135.084 142.835 135.105 144.737 136.492 C 145.211 136.837 146.223 137.433 146.988 137.816 C 147.753 138.199 148.858 138.837 149.444 139.235 C 150.03 139.633 151.448 140.323 152.595 140.769 C 153.742 141.214 155.219 141.805 155.877 142.082 C 160.068 143.844 173.586 143.724 177.951 141.887 C 178.55 141.635 179.722 141.18 180.555 140.876 C 181.389 140.572 182.956 139.752 184.038 139.053 C 185.12 138.355 186.381 137.568 186.84 137.304 C 189.512 135.765 194.235 130.961 196.446 127.532 C 197.007 126.662 197.854 125.444 198.328 124.826 C 201.567 120.597 204.106 112.707 204.825 104.634 C 204.924 103.513 205.089 101.984 205.191 101.238 C 205.453 99.312 205.419 95.922 205.11 93.029 C 204.964 91.664 204.748 89.421 204.629 88.044 C 204.249 83.648 203.992 82.453 202.534 78.313 C 200.924 73.743 199.563 70.684 198.305 68.804 C 197.807 68.06 197.065 66.786 196.657 65.973 C 195.91 64.489 195.817 64.38 191.103 59.499 C 188.723 57.035 186.866 55.655 182.113 52.818 C 180.633 51.935 174.752 50.033 172.961 49.859 C 170.781 49.647 161.1 49.657 160.007 49.872 M 269.231 72.024 C 271.923 72.554 275.144 74.449 277.18 76.701 C 280.013 79.836 281.835 84.068 282.383 88.786 C 282.542 90.162 282.753 91.872 282.85 92.586 C 283.105 94.452 283.076 96.505 282.755 99.259 C 282.601 100.584 282.356 102.836 282.212 104.263 C 281.919 107.156 281.471 108.841 280.646 110.141 C 280.341 110.621 279.757 111.705 279.347 112.55 C 277.376 116.619 272.787 119.686 267.748 120.304 C 258.987 121.377 252.181 115.551 249.596 104.764 C 248.112 98.57 248.523 88.818 250.478 83.878 C 250.922 82.754 251.516 81.227 251.797 80.484 C 254.148 74.277 261.801 70.563 269.231 72.024 M 162.913 74.422 C 168.672 75.811 173.74 82.991 174.438 90.748 C 175.775 105.613 172.727 114.349 164.873 118.161 C 153.701 123.584 142.134 115.678 140.879 101.761 C 140.462 97.132 140.731 90.125 141.433 87.364 C 142.649 82.578 147.291 76.494 150.967 74.868 C 152.914 74.006 160.081 73.739 162.913 74.422" stroke-linecap="round"/>
</g>
</svg>